HIERARCHY
ROOT Root
{
  OFFSET 0.0 0.0 0.0
  CHANNELS 6 Xposition Yposition Zposition Zrotation Yrotation Xrotation
  JOINT Hips
  {
    OFFSET 0.0 100.0 0.0
    CHANNELS 6 Xposition Yposition Zposition Zrotation Yrotation Xrotation
    JOINT Spine1
    {
      OFFSET 5.003913 -0.037094 -0.013727
      CHANNELS 3 Zrotation Yrotation Xrotation
      JOINT Spine2
      {
        OFFSET 7.125363 -1e-06 0.0
        CHANNELS 3 Zrotation Yrotation Xrotation
        JOINT Chest
        {
          OFFSET 7.594027 1e-06 0.0
          CHANNELS 3 Zrotation Yrotation Xrotation
          JOINT Neck1
          {
            OFFSET 26.313086 -0.460272 -0.181672
            CHANNELS 3 Zrotation Yrotation Xrotation
            JOINT Neck2
            {
              OFFSET 8.045911 0.0 0.0
              CHANNELS 3 Zrotation Yrotation Xrotation
              JOINT Head
              {
                OFFSET 6.432774 0.0 0.0
                CHANNELS 3 Zrotation Yrotation Xrotation
                JOINT HeadEnd
                {
                  OFFSET 16.169773 0.06451 0.00362
                  CHANNELS 3 Zrotation Yrotation Xrotation
                }
                JOINT Jaw
                {
                  OFFSET 0.108741 3.12938 0.002639
                  CHANNELS 3 Zrotation Yrotation Xrotation
                }
                JOINT LeftEye
                {
                  OFFSET 4.45173 8.166359 3.206392
                  CHANNELS 3 Zrotation Yrotation Xrotation
                }
                JOINT RightEye
                {
                  OFFSET 4.436895 8.135758 -3.222429
                  CHANNELS 3 Zrotation Yrotation Xrotation
                }
              }
            }
          }
          JOINT LeftShoulder
          {
            OFFSET 23.218927 5.195579 1.621656
            CHANNELS 3 Zrotation Yrotation Xrotation
            JOINT LeftArm
            {
              OFFSET 15.902118 2e-06 -2e-06
              CHANNELS 3 Zrotation Yrotation Xrotation
              JOINT LeftForeArm
              {
                OFFSET 28.739307 0.0 -1e-06
                CHANNELS 3 Zrotation Yrotation Xrotation
                JOINT LeftHand
                {
                  OFFSET 27.093981 -4e-06 0.0
                  CHANNELS 3 Zrotation Yrotation Xrotation
                  JOINT LeftHandThumb1
                  {
                    OFFSET 2.276781 3.380274 0.83384
                    CHANNELS 3 Zrotation Yrotation Xrotation
                    JOINT LeftHandThumb2
                    {
                      OFFSET 4.705309 -1e-06 -1e-06
                      CHANNELS 3 Zrotation Yrotation Xrotation
                      JOINT LeftHandThumb3
                      {
                        OFFSET 2.798515 0.0 3e-06
                        CHANNELS 3 Zrotation Yrotation Xrotation
                        JOINT LeftHandThumbEnd
                        {
                          OFFSET 3.180793 4e-06 -4e-06
                          CHANNELS 3 Zrotation Yrotation Xrotation
                        }
                      }
                    }
                  }
                  JOINT LeftHandIndex1
                  {
                    OFFSET 3.247786 2.352677 0.137192
                    CHANNELS 3 Zrotation Yrotation Xrotation
                    JOINT LeftHandIndex2
                    {
                      OFFSET 6.367095 1e-06 0.0
                      CHANNELS 3 Zrotation Yrotation Xrotation
                      JOINT LeftHandIndex3
                      {
                        OFFSET 3.662364 0.0 0.0
                        CHANNELS 3 Zrotation Yrotation Xrotation
                        JOINT LeftHandIndex4
                        {
                          OFFSET 2.329242 4e-06 -4e-06
                          CHANNELS 3 Zrotation Yrotation Xrotation
                          JOINT LeftHandIndexEnd
                          {
                            OFFSET 2.767823 1e-06 0.0
                            CHANNELS 3 Zrotation Yrotation Xrotation
                          }
                        }
                      }
                    }
                  }
                  JOINT LeftHandMiddle1
                  {
                    OFFSET 3.163612 0.945023 -0.406112
                    CHANNELS 3 Zrotation Yrotation Xrotation
                    JOINT LeftHandMiddle2
                    {
                      OFFSET 6.276789 3e-06 0.0
                      CHANNELS 3 Zrotation Yrotation Xrotation
                      JOINT LeftHandMiddle3
                      {
                        OFFSET 4.35652 -1e-06 4e-06
                        CHANNELS 3 Zrotation Yrotation Xrotation
                        JOINT LeftHandMiddle4
                        {
                          OFFSET 2.996877 0.0 8e-06
                          CHANNELS 3 Zrotation Yrotation Xrotation
                          JOINT LeftHandMiddleEnd
                          {
                            OFFSET 2.323256 3e-06 -4e-06
                            CHANNELS 3 Zrotation Yrotation Xrotation
                          }
                        }
                      }
                    }
                  }
                  JOINT LeftHandRing1
                  {
                    OFFSET 2.882606 -0.309162 0.107445
                    CHANNELS 3 Zrotation Yrotation Xrotation
                    JOINT LeftHandRing2
                    {
                      OFFSET 6.033198 0.0 4e-06
                      CHANNELS 3 Zrotation Yrotation Xrotation
                      JOINT LeftHandRing3
                      {
                        OFFSET 4.350578 3e-06 0.0
                        CHANNELS 3 Zrotation Yrotation Xrotation
                        JOINT LeftHandRing4
                        {
                          OFFSET 2.651321 2e-06 -7e-06
                          CHANNELS 3 Zrotation Yrotation Xrotation
                          JOINT LeftHandRingEnd
                          {
                            OFFSET 1.937663 1e-06 -4e-06
                            CHANNELS 3 Zrotation Yrotation Xrotation
                          }
                        }
                      }
                    }
                  }
                  JOINT LeftHandPinky1
                  {
                    OFFSET 2.865315 -1.525436 0.575687
                    CHANNELS 3 Zrotation Yrotation Xrotation
                    JOINT LeftHandPinky2
                    {
                      OFFSET 5.54936 1e-06 -8e-06
                      CHANNELS 3 Zrotation Yrotation Xrotation
                      JOINT LeftHandPinky3
                      {
                        OFFSET 3.070974 0.0 -4e-06
                        CHANNELS 3 Zrotation Yrotation Xrotation
                        JOINT LeftHandPinky4
                        {
                          OFFSET 1.549672 1e-06 0.0
                          CHANNELS 3 Zrotation Yrotation Xrotation
                          JOINT LeftHandPinkyEnd
                          {
                            OFFSET 1.952123 0.0 0.0
                            CHANNELS 3 Zrotation Yrotation Xrotation
                          }
                        }
                      }
                    }
                  }
                }
              }
            }
          }
          JOINT RightShoulder
          {
            OFFSET 23.161716 5.296122 -1.380114
            CHANNELS 3 Zrotation Yrotation Xrotation
            JOINT RightArm
            {
              OFFSET -16.027195 -2e-06 1.1e-05
              CHANNELS 3 Zrotation Yrotation Xrotation
              JOINT RightForeArm
              {
                OFFSET -28.736639 4e-06 2e-06
                CHANNELS 3 Zrotation Yrotation Xrotation
                JOINT RightHand
                {
                  OFFSET -27.133619 6e-06 0.0
                  CHANNELS 3 Zrotation Yrotation Xrotation
                  JOINT RightHandThumb1
                  {
                    OFFSET -2.274328 -3.351035 -0.83067
                    CHANNELS 3 Zrotation Yrotation Xrotation
                    JOINT RightHandThumb2
                    {
                      OFFSET -4.703594 -3e-06 2e-06
                      CHANNELS 3 Zrotation Yrotation Xrotation
                      JOINT RightHandThumb3
                      {
                        OFFSET -2.794935 -4e-06 -3e-06
                        CHANNELS 3 Zrotation Yrotation Xrotation
                        JOINT RightHandThumbEnd
                        {
                          OFFSET -3.183852 4e-06 1e-06
                          CHANNELS 3 Zrotation Yrotation Xrotation
                        }
                      }
                    }
                  }
                  JOINT RightHandIndex1
                  {
                    OFFSET -3.253496 -2.33755 -0.127667
                    CHANNELS 3 Zrotation Yrotation Xrotation
                    JOINT RightHandIndex2
                    {
                      OFFSET -6.344434 0.0 0.0
                      CHANNELS 3 Zrotation Yrotation Xrotation
                      JOINT RightHandIndex3
                      {
                        OFFSET -3.654871 0.0 -8e-06
                        CHANNELS 3 Zrotation Yrotation Xrotation
                        JOINT RightHandIndex4
                        {
                          OFFSET -2.327586 -1e-06 0.0
                          CHANNELS 3 Zrotation Yrotation Xrotation
                          JOINT RightHandIndexEnd
                          {
                            OFFSET -2.770001 3e-06 8e-06
                            CHANNELS 3 Zrotation Yrotation Xrotation
                          }
                        }
                      }
                    }
                  }
                  JOINT RightHandMiddle1
                  {
                    OFFSET -3.168223 -0.944764 0.411762
                    CHANNELS 3 Zrotation Yrotation Xrotation
                    JOINT RightHandMiddle2
                    {
                      OFFSET -6.266691 -1e-06 -4e-06
                      CHANNELS 3 Zrotation Yrotation Xrotation
                      JOINT RightHandMiddle3
                      {
                        OFFSET -4.348901 0.0 0.0
                        CHANNELS 3 Zrotation Yrotation Xrotation
                        JOINT RightHandMiddle4
                        {
                          OFFSET -3.00024 2e-06 -4e-06
                          CHANNELS 3 Zrotation Yrotation Xrotation
                          JOINT RightHandMiddleEnd
                          {
                            OFFSET -2.321477 -4e-06 -4e-06
                            CHANNELS 3 Zrotation Yrotation Xrotation
                          }
                        }
                      }
                    }
                  }
                  JOINT RightHandRing1
                  {
                    OFFSET -2.885654 0.293261 -0.119232
                    CHANNELS 3 Zrotation Yrotation Xrotation
                    JOINT RightHandRing2
                    {
                      OFFSET -6.032835 -1e-06 -4e-06
                      CHANNELS 3 Zrotation Yrotation Xrotation
                      JOINT RightHandRing3
                      {
                        OFFSET -4.33881 0.0 -4e-06
                        CHANNELS 3 Zrotation Yrotation Xrotation
                        JOINT RightHandRing4
                        {
                          OFFSET -2.654903 -4e-06 -4e-06
                          CHANNELS 3 Zrotation Yrotation Xrotation
                          JOINT RightHandRingEnd
                          {
                            OFFSET -1.935122 0.0 4e-06
                            CHANNELS 3 Zrotation Yrotation Xrotation
                          }
                        }
                      }
                    }
                  }
                  JOINT RightHandPinky1
                  {
                    OFFSET -2.866241 1.503904 -0.60527
                    CHANNELS 3 Zrotation Yrotation Xrotation
                    JOINT RightHandPinky2
                    {
                      OFFSET -5.553177 -2e-06 0.0
                      CHANNELS 3 Zrotation Yrotation Xrotation
                      JOINT RightHandPinky3
                      {
                        OFFSET -3.062664 -1e-06 -4e-06
                        CHANNELS 3 Zrotation Yrotation Xrotation
                        JOINT RightHandPinky4
                        {
                          OFFSET -1.546529 2e-06 4e-06
                          CHANNELS 3 Zrotation Yrotation Xrotation
                          JOINT RightHandPinkyEnd
                          {
                            OFFSET -1.952341 0.0 -4e-06
                            CHANNELS 3 Zrotation Yrotation Xrotation
                          }
                        }
                      }
                    }
                  }
                }
              }
            }
          }
        }
      }
    }
    JOINT LeftLeg
    {
      OFFSET -8.443107 2.567604 10.043214
      CHANNELS 3 Zrotation Yrotation Xrotation
      JOINT LeftShin
      {
        OFFSET 43.229198 1e-06 -1e-06
        CHANNELS 3 Zrotation Yrotation Xrotation
        JOINT LeftFoot
        {
          OFFSET 42.298611 1e-06 1e-06
          CHANNELS 3 Zrotation Yrotation Xrotation
          JOINT LeftToeBase
          {
            OFFSET 14.165858 1e-06 0.0
            CHANNELS 3 Zrotation Yrotation Xrotation
            JOINT LeftToeEnd
            {
              OFFSET 6.7141 -0.234461 0.0
              CHANNELS 3 Zrotation Yrotation Xrotation
            }
          }
        }
      }
    }
    JOINT RightLeg
    {
      OFFSET -8.303923 2.592729 -10.047278
      CHANNELS 3 Zrotation Yrotation Xrotation
      JOINT RightShin
      {
        OFFSET -43.369682 0.0 1e-06
        CHANNELS 3 Zrotation Yrotation Xrotation
        JOINT RightFoot
        {
          OFFSET -42.260784 4e-06 2e-06
          CHANNELS 3 Zrotation Yrotation Xrotation
          JOINT RightToeBase
          {
            OFFSET -14.222245 -2e-06 -1e-06
            CHANNELS 3 Zrotation Yrotation Xrotation
            JOINT RightToeEnd
            {
              OFFSET -6.660062 0.232574 -2e-06
              CHANNELS 3 Zrotation Yrotation Xrotation
            }
          }
        }
      }
    }
  }
}
MOTION
Frames: 4
Frame Time: 0.03333333333333333
0.0 0.0 0.0 0.0 -0.0 0.0 0.572776 3.12326 -97.413429 59.686256 85.587486 59.362957 -1.293782 -0.645602 0.621371 -11.655984 0.095455 -0.030799 11.015136 -2.156527 -3.475345 5.626708 -2.153466 4.539415 -3.005572 -1.020967 1.749426 -37.082195 -0.735466 0.805149 8e-06 -0.0 0.0 -0.17065 0.090164 -0.14587 -0.314901 -0.192188 0.088737 -0.0222 0.355209 -0.348863 -45.577656 -72.450874 58.584133 16.095161 -69.497902 25.188025 15.173205 1.92776 -0.322078 -1.209125 -6.273757 3.895065 17.636629 -26.322731 52.411201 -19.46666 -14.395598 29.410395 1e-06 -8.774821 -2e-06 16.654297 -17.736078 6.223578 -0.609776 -1.795654 -3.889326 -4.807091 -11.046811 -2.93785 2e-06 -20.976015 2e-06 -5.019975 -25.033558 -4.031883 5e-06 -1e-06 1e-06 -10.634535 -5.686973 -3.565589 10.573272 -17.922951 -3.1139 2e-06 -13.821209 3e-06 -0.501777 -31.181507 -4.027017 -12.179177 -60.399666 8.887965 -13.982717 -7.1502 -2.875042 13.772728 -8.401489 -3.21824 0.347731 -34.211555 0.771652 -0.963029 -17.73337 2.621018 -2e-06 -2e-06 3e-06 -17.346424 -20.095221 -4.20178 21.757561 -1.638372 3.866429 1e-06 -6.338824 0.0 -1.697592 -22.591747 -6.194007 1e-06 -6e-06 -2e-06 168.682465 -70.132103 14.215835 -12.929658 -60.137939 22.195797 18.725367 -2.70632 0.267497 -2.804595 -0.992437 12.180375 22.182112 -20.37591 49.933346 -16.701817 -16.743538 28.476542 -5e-06 -12.690603 2e-06 15.684018 -17.516809 2.512202 -0.105918 -1.513859 -4.275883 -5.039042 -5.612873 -2.953557 5e-06 -11.020528 -3e-06 -6.111298 -15.895338 -3.840472 -0.0 -0.0 0.0 -10.283371 -5.680292 -4.341838 11.028297 -11.302406 -2.372636 -1.384268 -14.238581 -6.320123 -0.625438 -26.924191 -3.827602 -4.009555 -48.246315 -4.165704 -13.708527 -7.363479 -3.720938 18.141155 -14.052742 -3.242679 6e-06 -18.787271 -2e-06 -0.429713 -8.456045 2.555504 0.0 0.0 0.0 -15.923536 -20.094486 -5.473587 30.419218 -7.190827 1.735924 3e-06 -8.162927 -1e-06 -1.861903 -22.861469 -6.167941 -0.0 -3e-06 -1e-06 165.031494 -17.587605 -27.534431 23.558689 2.512335 -5.663169 -27.083221 -55.666119 -40.545818 -8.801452 1.246727 1.472661 -0.999997 1e-06 1e-06 -16.034306 -18.850376 -29.463428 25.064013 0.813266 -4.136477 -19.057306 -45.597733 -37.183125 -9.09987 0.431931 1.09533 -1.000002 -0.0 -1e-06 
0.0 0.0 0.0 0.0 -0.0 0.0 0.579248 3.138518 -97.446884 59.503422 85.576767 59.155907 -1.29279 -0.620788 0.627538 -11.647996 0.109103 -0.03733 10.983232 -2.15746 -3.480034 5.606672 -2.239578 4.538942 -3.008873 -1.011613 1.776866 -37.034225 -0.704351 0.752561 7e-06 -0.0 0.0 -0.169524 0.089816 -0.147605 -0.334934 -0.185625 0.087296 -0.035924 0.347527 -0.350914 -45.659405 -72.452957 58.648411 16.087076 -69.477051 25.181269 15.178173 1.84515 -0.336418 -1.234394 -6.223903 4.058596 17.636629 -26.322739 52.411209 -19.466665 -14.395598 29.410395 -1e-06 -8.774822 -3e-06 16.667355 -17.743683 6.226169 -0.609776 -1.795654 -3.889328 -4.807088 -11.046813 -2.937853 5e-06 -20.976021 2e-06 -5.01997 -25.033562 -4.031882 6e-06 0.0 -1e-06 -10.634535 -5.686973 -3.565589 10.573275 -17.922955 -3.113902 3e-06 -13.821213 2e-06 -0.501778 -31.181511 -4.027013 -12.193881 -60.451572 8.897854 -13.982714 -7.150199 -2.875041 13.772731 -8.401495 -3.218243 0.347735 -34.211559 0.771654 -0.96303 -17.733372 2.62102 -1e-06 -2e-06 1e-06 -17.346422 -20.095221 -4.201784 21.757563 -1.638376 3.866428 1e-06 -6.338825 -0.0 -1.697587 -22.591747 -6.194008 0.0 -4e-06 -3e-06 168.677444 -70.098976 14.141537 -12.990218 -60.131783 22.253712 18.745447 -2.724866 0.27852 -2.854388 -0.946509 12.276273 22.182116 -20.375898 49.933319 -16.701817 -16.743528 28.476528 -3e-06 -12.690601 -1e-06 15.660019 -17.550552 2.517957 -0.10592 -1.513857 -4.275881 -5.039041 -5.612867 -2.953556 5e-06 -11.020524 -2e-06 -6.111297 -15.895334 -3.84047 -0.0 -0.0 0.0 -10.283371 -5.680286 -4.341838 11.028296 -11.302407 -2.372633 -1.384268 -14.238583 -6.320121 -0.62544 -26.924191 -3.8276 -4.029963 -48.225246 -4.158375 -13.708522 -7.363477 -3.720938 18.14115 -14.052739 -3.242675 6e-06 -18.78727 -3e-06 -0.429712 -8.456044 2.555503 0.0 0.0 -1e-06 -15.923534 -20.094484 -5.473583 30.41921 -7.190826 1.735925 2e-06 -8.162926 -2e-06 -1.861902 -22.861473 -6.167943 -0.0 -2e-06 -1e-06 165.131622 -17.554211 -27.534853 23.367521 2.512069 -5.650555 -26.921101 -55.697308 -40.686871 -8.778108 1.239929 1.461292 -0.999998 -0.0 1e-06 -15.94239 -18.752672 -29.474535 24.840639 0.778651 -4.129554 -18.927263 -45.587074 -37.17622 -9.117734 0.421918 1.098081 -1.000003 0.0 1e-06 
0.0 0.0 0.0 0.0 -0.0 0.0 0.589648 3.142345 -97.45787 59.340191 85.593849 58.972645 -1.277822 -0.608059 0.633132 -11.631794 0.111213 -0.043601 10.949624 -2.156815 -3.491866 5.570442 -2.319481 4.538643 -3.015817 -0.930006 1.788378 -36.988796 -0.683432 0.722812 5e-06 0.0 -0.0 -0.167101 0.088542 -0.147444 -0.359275 -0.182404 0.086729 -0.050324 0.340833 -0.350091 -45.643124 -72.452339 58.613289 16.045525 -69.499336 25.244398 15.175301 1.796536 -0.358161 -1.258626 -6.175064 4.225747 17.636629 -26.322731 52.411186 -19.466661 -14.395597 29.410393 -0.0 -8.774821 -2e-06 16.674116 -17.73444 6.226726 -0.609776 -1.795655 -3.889326 -4.807087 -11.046811 -2.937853 4e-06 -20.976021 3e-06 -5.019972 -25.03356 -4.031882 6e-06 -3e-06 1e-06 -10.634535 -5.686973 -3.565589 10.573276 -17.922953 -3.113901 1e-06 -13.821211 3e-06 -0.501777 -31.181511 -4.027017 -12.231229 -60.52404 8.936502 -13.982714 -7.150199 -2.875044 13.772727 -8.401493 -3.218241 0.347732 -34.211555 0.771655 -0.963031 -17.73337 2.621021 -1e-06 0.0 1e-06 -17.346422 -20.095221 -4.20178 21.757565 -1.638375 3.866427 1e-06 -6.338826 0.0 -1.697589 -22.591751 -6.194008 1e-06 -6e-06 -3e-06 168.694656 -70.0653 14.074339 -12.971654 -60.133442 22.266914 18.746 -2.742961 0.285112 -2.900086 -0.912048 12.350332 22.182121 -20.375895 49.933311 -16.701817 -16.743534 28.476534 -5e-06 -12.690605 -1e-06 15.648501 -17.592924 2.511332 -0.105918 -1.513857 -4.275882 -5.039041 -5.612873 -2.953555 5e-06 -11.020526 -2e-06 -6.1113 -15.895334 -3.840469 -0.0 -1e-06 0.0 -10.283373 -5.680286 -4.34184 11.028297 -11.302411 -2.372633 -1.384269 -14.238586 -6.320121 -0.625439 -26.924198 -3.827601 -4.049618 -48.187347 -4.164884 -13.708527 -7.363476 -3.720941 18.141151 -14.052742 -3.242675 6e-06 -18.787273 -2e-06 -0.429712 -8.456046 2.555504 -0.0 -0.0 -0.0 -15.923539 -20.094484 -5.473585 30.419224 -7.190827 1.735925 2e-06 -8.162926 -1e-06 -1.861903 -22.861475 -6.167943 -0.0 -3e-06 -1e-06 165.19574 -17.540312 -27.549263 23.304087 2.519615 -5.655995 -26.888977 -55.708668 -40.74939 -8.77892 1.22549 1.442761 -1.0 0.0 -1e-06 -15.893863 -18.714127 -29.466284 24.752691 0.747493 -4.131835 -18.890053 -45.589611 -37.187649 -9.095623 0.40541 1.096188 -1.000002 0.0 1e-06 
0.0 0.0 0.0 0.0 -0.0 0.0 0.598161 3.130358 -97.472755 59.124775 85.632103 58.737598 -1.245822 -0.613568 0.6421 -11.612445 0.100718 -0.051648 10.917655 -2.144016 -3.509466 5.548912 -2.367997 4.546995 -3.024801 -0.859841 1.77978 -36.957623 -0.636144 0.691022 4e-06 -0.0 -0.0 -0.164226 0.082536 -0.14309 -0.383705 -0.189118 0.088174 -0.062545 0.334138 -0.34291 -45.605923 -72.46106 58.58289 16.032343 -69.520134 25.289978 15.163847 1.784402 -0.384698 -1.293906 -6.131002 4.363845 17.636635 -26.322737 52.411198 -19.466665 -14.395598 29.410395 -0.0 -8.774822 -3e-06 16.670198 -17.70224 6.220665 -0.609777 -1.795654 -3.88933 -4.807088 -11.046813 -2.937848 4e-06 -20.976019 2e-06 -5.01997 -25.033562 -4.03188 5e-06 -1e-06 0.0 -10.634533 -5.686972 -3.565589 10.573276 -17.922956 -3.113901 3e-06 -13.821212 1e-06 -0.501778 -31.181511 -4.027011 -12.248148 -60.582767 8.957298 -13.982714 -7.150198 -2.875043 13.77273 -8.401493 -3.218241 0.347736 -34.211555 0.771655 -0.963026 -17.733372 2.621019 -0.0 -0.0 2e-06 -17.346418 -20.095221 -4.201784 21.757557 -1.638376 3.866426 2e-06 -6.338825 1e-06 -1.697588 -22.591745 -6.194006 2e-06 -5e-06 -2e-06 168.755585 -70.050171 13.983176 -12.935366 -60.131252 22.252838 18.747719 -2.761307 0.298917 -2.946868 -0.906659 12.392526 22.18211 -20.375895 49.933327 -16.701813 -16.743528 28.476532 -4e-06 -12.690601 -0.0 15.648404 -17.613985 2.502097 -0.10592 -1.513853 -4.275881 -5.039041 -5.61287 -2.953556 5e-06 -11.020523 -3e-06 -6.111298 -15.89533 -3.840469 1e-06 -1e-06 0.0 -10.283369 -5.680293 -4.341837 11.028296 -11.302405 -2.372634 -1.384267 -14.238581 -6.320121 -0.625438 -26.924191 -3.827601 -4.062969 -48.156193 -4.167764 -13.708524 -7.363477 -3.720939 18.141151 -14.052739 -3.242676 6e-06 -18.78727 -2e-06 -0.429713 -8.456043 2.555504 0.0 -0.0 -1e-06 -15.923538 -20.094482 -5.473582 30.419214 -7.190825 1.735923 3e-06 -8.162924 -0.0 -1.861903 -22.861467 -6.167941 0.0 -3e-06 -1e-06 165.288956 -17.505871 -27.579399 23.199942 2.516533 -5.674792 -26.831007 -55.692646 -40.787258 -8.810756 1.216385 1.430443 -0.999998 1e-06 -1e-06 -15.820698 -18.684216 -29.474951 24.644079 0.726416 -4.143833 -18.871845 -45.603291 -37.195911 -9.054581 0.391331 1.093948 -1.000003 0.0 -1e-06 
